<svg xmlns="http://www.w3.org/2000/svg" viewBox="0 0 500 500"><defs><style>.cls-1{fill:#87c759;}.cls-2{fill:#087dae;}.cls-3{fill:#009ea1;}</style></defs><g id="Layer_1" data-name="Layer 1"><path class="cls-1" d="M161.93,313.07a43.38,43.38,0,0,0-.08,86.76l179.68.17a43.38,43.38,0,0,0,.08-86.75Z"/><path class="cls-2" d="M205.42,143.42a43.34,43.34,0,1,0-86.67-.08l-.2,213.05a43.34,43.34,0,1,0,86.68.08Z"/><path class="cls-3" d="M161.93,313.07a43.37,43.37,0,1,0,43.3,43.4l0-43.36Z"/><path class="cls-1" d="M396.1,386.85h-4.89V400H389V386.85h-5v-2H396.1ZM415.45,400h-2.21V387.3h-.07l-5.1,12.7h-1.44l-5.1-12.7h-.08V400h-2.2V384.87h3.42l4.73,11.61,4.74-11.61h3.31Z"/></g></svg>