<svg width="315" height="99" viewBox="0 0 315 99" fill="none" xmlns="http://www.w3.org/2000/svg">
<path d="M115.41 5.97999C115.409 5.5597 115.491 5.14334 115.652 4.75528C115.814 4.36722 116.051 4.01525 116.35 3.71999C116.636 3.43028 116.976 3.19927 117.35 3.03999C117.741 2.88413 118.159 2.806 118.58 2.80999C118.998 2.80853 119.412 2.88997 119.798 3.0496C120.184 3.20924 120.535 3.44389 120.83 3.73999C121.122 4.02371 121.354 4.36395 121.51 4.73999C121.669 5.12356 121.751 5.53478 121.75 5.94999V33.69H138.2C138.582 33.69 138.96 33.7653 139.312 33.9117C139.665 34.0581 139.985 34.2726 140.254 34.5429C140.524 34.8133 140.737 35.1341 140.882 35.4871C141.027 35.8401 141.101 36.2183 141.1 36.6C141.097 37.3692 140.791 38.1064 140.248 38.6513C139.705 39.1961 138.969 39.5047 138.2 39.51H118.62C118.192 39.5106 117.768 39.4291 117.37 39.27C116.993 39.1023 116.653 38.8609 116.37 38.56C116.069 38.2522 115.832 37.8888 115.67 37.49C115.52 37.0872 115.449 36.6595 115.46 36.23L115.41 5.97999Z" fill="#087DAE"/>
<path d="M147.1 5.98001C147.1 5.13397 147.436 4.32258 148.034 3.72433C148.633 3.12609 149.444 2.79001 150.29 2.79001C151.136 2.79001 151.947 3.12609 152.546 3.72433C153.144 4.32258 153.48 5.13397 153.48 5.98001V36.55C153.48 37.396 153.144 38.2074 152.546 38.8057C151.947 39.4039 151.136 39.74 150.29 39.74C149.444 39.74 148.633 39.4039 148.034 38.8057C147.436 38.2074 147.1 37.396 147.1 36.55V5.98001Z" fill="#087DAE"/>
<path d="M161.11 6.12C161.109 5.69831 161.191 5.28054 161.35 4.89C161.517 4.51459 161.754 4.175 162.05 3.89C162.333 3.59228 162.673 3.35428 163.05 3.18999C163.441 3.03096 163.858 2.94944 164.28 2.95H164.95C165.616 2.96167 166.268 3.13681 166.85 3.46C167.429 3.78765 167.92 4.25091 168.28 4.81L186.44 28.33V5.98C186.44 5.14722 186.771 4.34855 187.36 3.75968C187.949 3.17082 188.747 2.84 189.58 2.84C190.413 2.84 191.211 3.17082 191.8 3.75968C192.389 4.34855 192.72 5.14722 192.72 5.98V36.5C192.728 36.9137 192.653 37.3248 192.5 37.7094C192.347 38.094 192.119 38.4443 191.83 38.74C191.54 39.0347 191.195 39.2688 190.814 39.4285C190.432 39.5881 190.023 39.6703 189.61 39.67H189.35C188.679 39.6479 188.023 39.4626 187.44 39.13C186.861 38.7936 186.373 38.3196 186.02 37.75L167.35 13.55V36.6C167.374 37.0266 167.311 37.4536 167.164 37.8549C167.018 38.2562 166.791 38.6234 166.497 38.9339C166.204 39.2444 165.85 39.4918 165.457 39.6609C165.065 39.8299 164.642 39.9171 164.215 39.9171C163.788 39.9171 163.365 39.8299 162.973 39.6609C162.58 39.4918 162.226 39.2444 161.933 38.9339C161.639 38.6234 161.412 38.2562 161.266 37.8549C161.119 37.4536 161.056 37.0266 161.08 36.6L161.11 6.12Z" fill="#087DAE"/>
<path d="M199.41 24.04V5.97999C199.41 5.34866 199.598 4.7316 199.949 4.20695C200.3 3.6823 200.799 3.27364 201.383 3.03272C201.966 2.7918 202.608 2.72946 203.227 2.85358C203.846 2.97771 204.414 3.28272 204.86 3.72999C205.454 4.32816 205.789 5.13675 205.79 5.97999V23.78C205.79 30.53 209.26 34.11 214.97 34.11C220.68 34.11 224.06 30.7 224.06 24.04V5.97999C224.07 5.14949 224.404 4.35575 224.99 3.76752C225.577 3.17929 226.37 2.84294 227.2 2.82999C227.62 2.83016 228.036 2.91329 228.424 3.0746C228.812 3.23591 229.164 3.47223 229.46 3.76999C229.756 4.0649 229.991 4.41561 230.15 4.80183C230.31 5.18804 230.391 5.60209 230.39 6.01999V23.73C230.39 34.58 224.28 40.03 214.79 40.03C205.3 40.03 199.41 34.58 199.41 24.04Z" fill="#087DAE"/>
<path d="M236.52 35.4C236.204 35.1584 235.938 34.8568 235.738 34.5124C235.538 34.168 235.408 33.7877 235.355 33.393C235.302 32.9984 235.327 32.5972 235.429 32.2123C235.531 31.8275 235.708 31.4665 235.95 31.15C236.192 30.8335 236.493 30.5677 236.838 30.3678C237.182 30.1679 237.562 30.0377 237.957 29.9848C238.352 29.9319 238.753 29.9572 239.138 30.0593C239.523 30.1614 239.884 30.3384 240.2 30.58C243.052 33.0032 246.677 34.3262 250.42 34.31C254.36 34.31 256.84 32.45 256.84 29.77V29.67C256.84 27.08 255.39 25.67 248.65 24.11C240.92 22.25 236.57 19.96 236.57 13.26V13.16C236.57 6.92999 241.76 2.60999 248.96 2.60999C253.038 2.53765 257.04 3.71352 260.43 5.97999C260.849 6.25416 261.193 6.62888 261.43 7.06999C261.679 7.51565 261.803 8.01987 261.79 8.52999C261.788 8.92135 261.71 9.30863 261.56 9.66999C261.412 10.0435 261.191 10.3835 260.91 10.67C260.62 10.944 260.28 11.1611 259.91 11.31C259.544 11.4547 259.153 11.5261 258.76 11.52C258.174 11.5288 257.598 11.3691 257.1 11.06C254.653 9.33026 251.746 8.36934 248.75 8.29999C245.02 8.29999 242.84 10.22 242.84 12.62V12.72C242.84 15.52 244.5 16.72 251.5 18.4C259.2 20.28 263.2 23.03 263.2 29.05V29.14C263.2 35.98 257.84 39.98 250.2 39.98C245.263 39.9859 240.459 38.3775 236.52 35.4V35.4Z" fill="#087DAE"/>
<path d="M115.41 64.24C115.41 63.3939 115.746 62.5826 116.344 61.9843C116.943 61.3861 117.754 61.05 118.6 61.05C119.446 61.05 120.257 61.3861 120.856 61.9843C121.454 62.5826 121.79 63.3939 121.79 64.24V76.44H139.11V64.24C139.16 63.4227 139.517 62.6546 140.11 62.09C140.704 61.5302 141.489 61.2185 142.305 61.2185C143.121 61.2185 143.906 61.5302 144.5 62.09C145.093 62.6546 145.45 63.4227 145.5 64.24V94.77C145.448 95.5837 145.091 96.3479 144.5 96.91C143.906 97.4697 143.121 97.7815 142.305 97.7815C141.489 97.7815 140.704 97.4697 140.11 96.91C139.519 96.3479 139.162 95.5837 139.11 94.77V82.36H121.79V94.77C121.79 95.616 121.454 96.4274 120.856 97.0257C120.257 97.6239 119.446 97.96 118.6 97.96C117.754 97.96 116.943 97.6239 116.344 97.0257C115.746 96.4274 115.41 95.616 115.41 94.77V64.24Z" fill="#087DAE"/>
<path d="M152.76 94.45V64.54C152.752 64.1154 152.83 63.6935 152.99 63.3C153.156 62.9268 153.39 62.5878 153.68 62.3C153.984 62.006 154.34 61.7719 154.73 61.61C155.123 61.4483 155.545 61.37 155.97 61.38H177.08C177.483 61.3281 177.892 61.3622 178.28 61.48C178.651 61.6046 178.992 61.8056 179.28 62.07C179.59 62.3471 179.836 62.6883 180 63.07C180.162 63.4423 180.247 63.8438 180.25 64.25C180.247 64.6562 180.162 65.0576 180 65.43C179.836 65.8117 179.59 66.1529 179.28 66.43C178.991 66.6913 178.65 66.8889 178.28 67.01C177.892 67.1309 177.483 67.1684 177.08 67.12H159.14V76.56H174.75C175.139 76.537 175.529 76.5937 175.895 76.7268C176.262 76.8598 176.597 77.0664 176.881 77.3338C177.164 77.6011 177.39 77.9237 177.545 78.2816C177.699 78.6395 177.779 79.0252 177.779 79.415C177.779 79.8048 177.699 80.1905 177.545 80.5484C177.39 80.9063 177.164 81.2289 176.881 81.4962C176.597 81.7636 176.262 81.9702 175.895 82.1032C175.529 82.2363 175.139 82.293 174.75 82.27H159.14V91.98H177.3C177.989 92.0628 178.623 92.3976 179.08 92.92C179.545 93.4419 179.801 94.1163 179.801 94.815C179.801 95.5137 179.545 96.1881 179.08 96.71C178.623 97.2324 177.989 97.5672 177.3 97.65H155.97C155.552 97.6592 155.136 97.5809 154.75 97.42C154.372 97.2664 154.032 97.0346 153.75 96.74C153.453 96.4563 153.215 96.1164 153.05 95.74C152.859 95.3369 152.76 94.8962 152.76 94.45V94.45Z" fill="#087DAE"/>
<path d="M185.44 93.52L198.92 63.41C199.215 62.6337 199.742 61.967 200.429 61.5001C201.116 61.0332 201.93 60.7888 202.76 60.8H203.06C203.885 60.7898 204.693 61.0352 205.374 61.5025C206.054 61.9698 206.573 62.6361 206.86 63.41L220.35 93.52C220.587 93.9307 220.715 94.3957 220.72 94.87C220.731 95.2703 220.659 95.6685 220.51 96.04C220.359 96.4118 220.139 96.7512 219.86 97.04C219.575 97.3286 219.235 97.5565 218.86 97.71C218.488 97.8609 218.091 97.939 217.69 97.94C216.999 97.933 216.327 97.7092 215.77 97.3C215.209 96.8936 214.792 96.3192 214.58 95.66L211.58 88.85H193.99L190.93 95.85C190.708 96.4489 190.304 96.9634 189.775 97.3219C189.246 97.6804 188.619 97.865 187.98 97.85C187.589 97.8574 187.2 97.7824 186.84 97.63C186.465 97.4898 186.124 97.2716 185.84 96.99C185.561 96.7038 185.343 96.3635 185.2 95.99C185.05 95.6292 184.978 95.2406 184.99 94.85C185.039 94.3786 185.192 93.9241 185.44 93.52ZM209.2 83.29L202.82 68.6L196.43 83.29H209.2Z" fill="#087DAE"/>
<path d="M225.79 64.24C225.792 63.3939 226.126 62.5824 226.72 61.98C227.016 61.6825 227.369 61.4464 227.756 61.2853C228.144 61.1242 228.56 61.0413 228.98 61.0413C229.4 61.0413 229.816 61.1242 230.204 61.2853C230.591 61.4464 230.944 61.6825 231.24 61.98C231.834 62.5824 232.168 63.3939 232.17 64.24V91.9H248.61C249.382 91.9 250.122 92.2066 250.668 92.7523C251.213 93.298 251.52 94.0382 251.52 94.81C251.52 95.5818 251.213 96.3219 250.668 96.8677C250.122 97.4134 249.382 97.72 248.61 97.72H229C228.575 97.728 228.154 97.6497 227.76 97.49C227.367 97.3282 227.01 97.0903 226.71 96.79C226.41 96.4873 226.175 96.1266 226.02 95.73C225.858 95.337 225.78 94.9148 225.79 94.49V64.24Z" fill="#087DAE"/>
<path d="M260.59 67.25H251.77C251.211 67.2073 250.675 67.0089 250.223 66.6771C249.771 66.3453 249.421 65.8935 249.213 65.3729C249.005 64.8523 248.946 64.2838 249.045 63.7318C249.143 63.1798 249.395 62.6665 249.77 62.25C250.289 61.6896 251.007 61.3556 251.77 61.32H275.9C276.663 61.3556 277.381 61.6896 277.9 62.25C278.275 62.6665 278.527 63.1798 278.625 63.7318C278.724 64.2838 278.665 64.8523 278.457 65.3729C278.249 65.8935 277.899 66.3453 277.447 66.6771C276.995 67.0089 276.459 67.2073 275.9 67.25H267.02V94.77C267.02 95.4049 266.832 96.0256 266.479 96.5536C266.126 97.0815 265.625 97.493 265.038 97.736C264.452 97.979 263.806 98.0426 263.184 97.9187C262.561 97.7948 261.989 97.489 261.54 97.04C261.239 96.7434 261 96.39 260.837 96.0003C260.674 95.6106 260.59 95.1924 260.59 94.77V67.25Z" fill="#087DAE"/>
<path d="M284.2 64.24C284.221 63.3839 284.58 62.571 285.2 61.98C285.496 61.6822 285.848 61.4459 286.236 61.2846C286.624 61.1233 287.04 61.0402 287.46 61.04C287.879 61.0393 288.293 61.122 288.68 61.2834C289.066 61.4448 289.416 61.6816 289.71 61.98C290.008 62.2763 290.244 62.6284 290.405 63.0162C290.567 63.4041 290.65 63.8199 290.65 64.24V76.44H307.98V64.24C307.98 63.3939 308.316 62.5826 308.914 61.9843C309.513 61.3861 310.324 61.05 311.17 61.05C312.016 61.05 312.827 61.3861 313.426 61.9843C314.024 62.5826 314.36 63.3939 314.36 64.24V94.77C314.36 95.616 314.024 96.4274 313.426 97.0257C312.827 97.6239 312.016 97.96 311.17 97.96C310.324 97.96 309.513 97.6239 308.914 97.0257C308.316 96.4274 307.98 95.616 307.98 94.77V82.36H290.62V94.77C290.617 95.6149 290.279 96.4241 289.68 97.02C289.386 97.3183 289.036 97.5551 288.65 97.7165C288.263 97.8779 287.849 97.9607 287.43 97.96C286.584 97.96 285.773 97.6239 285.174 97.0257C284.576 96.4274 284.24 95.616 284.24 94.77L284.2 64.24Z" fill="#087DAE"/>
<path d="M14.2 69.58C10.4419 69.58 6.83768 71.0729 4.18029 73.7303C1.5229 76.3877 0.0299988 79.9919 0.0299988 83.75C0.0299988 87.5081 1.5229 91.1123 4.18029 93.7697C6.83768 96.4271 10.4419 97.92 14.2 97.92L72.9 97.98C76.6581 97.98 80.2623 96.4871 82.9197 93.8297C85.5771 91.1723 87.07 87.5681 87.07 83.81C87.07 80.0519 85.5771 76.4477 82.9197 73.7903C80.2623 71.1329 76.6581 69.64 72.9 69.64L14.2 69.58Z" fill="#87C759"/>
<path d="M28.45 14.16C28.45 12.3005 28.0837 10.4592 27.3721 8.7412C26.6605 7.02323 25.6175 5.46224 24.3026 4.14737C22.9878 2.83249 21.4268 1.78947 19.7088 1.07787C17.9908 0.366259 16.1495 0 14.29 0C12.4305 0 10.5892 0.366259 8.87121 1.07787C7.15324 1.78947 5.59225 2.83249 4.27737 4.14737C2.9625 5.46224 1.91948 7.02323 1.20787 8.7412C0.496263 10.4592 0.130004 12.3005 0.130004 14.16L0.0700027 83.75C0.0197495 85.6405 0.348712 87.5219 1.03747 89.2832C1.72623 91.0446 2.76083 92.6501 4.08021 94.005C5.3996 95.3599 6.97703 96.4368 8.71941 97.1721C10.4618 97.9074 12.3338 98.2863 14.225 98.2863C16.1162 98.2863 17.9882 97.9074 19.7306 97.1721C21.473 96.4368 23.0504 95.3599 24.3698 94.005C25.6892 92.6501 26.7238 91.0446 27.4125 89.2832C28.1013 87.5219 28.4303 85.6405 28.38 83.75L28.45 14.16Z" fill="#087DAE"/>
<path d="M14.2 69.58C11.3966 69.5741 8.65443 70.3998 6.32046 71.9528C3.98649 73.5058 2.16561 75.7161 1.08822 78.3043C0.0108368 80.8924 -0.274645 83.7419 0.267905 86.4923C0.810455 89.2427 2.15665 91.7704 4.13616 93.7555C6.11567 95.7406 8.63953 97.0939 11.3884 97.6443C14.1373 98.1946 16.9876 97.9172 19.5787 96.8471C22.1699 95.777 24.3854 93.9624 25.945 91.6328C27.5045 89.3032 28.338 86.5634 28.34 83.76V69.6L14.2 69.58Z" fill="#009EA1"/>
<path d="M90.73 93.69H89.14V97.98H88.42V93.69H86.79V93.04H90.73V93.69ZM97.05 97.98H96.33V93.83L94.64 97.98H94.2L92.54 93.83V97.98H91.82V93.04H92.94L94.49 96.83L96.03 93.04H97.11L97.05 97.98Z" fill="#87C759"/>
</svg>
